# xmcd CD database file
#
# Track frame offsets:
#	150
#	26275
#	56862
#	93592
#	121310
#	160362
#	189135
#	214282
#
# Disc length: 3295 seconds
#
# Revision: 0
# Processed by: cddbd v1.5.2PL0 Copyright (c) Steve Scherf et al.
# Submitted via: CDex 1.51
#
DISCID=690cdd08
DTITLE=Ulf Adåker and Cordeography - Somethin juiceful
DYEAR=1998
DGENRE=Jazz
TTITLE0=Blues connation
TTITLE1=Mixintrada
TTITLE2=Ponta de Areia
TTITLE3=Little Rootie Tootie
TTITLE4=Ancient people
TTITLE5=Dog river
TTITLE6=Vers minuit
TTITLE7=The bill
EXTD=YEAR: 1998
EXTT0=
EXTT1=
EXTT2=
EXTT3=
EXTT4=
EXTT5=
EXTT6=
EXTT7=
PLAYORDER=
